M48
;GenerationSoftware,Autodesk,EAGLE,9.6.2*%
;CreationDate,2021-03-06T04:59:04Z*%
FMAT,2
ICI,OFF
METRIC,TZ,000.000
T3C0.800
T2C1.016
T1C1.778
%
G90
M71
T1
X5080Y27940
X5080Y43180
X45720Y43180
X45720Y27940
T2
X11430Y15240
X24130Y15240
X34290Y15240
X31750Y15240
X29210Y15240
X26670Y15240
X21590Y15240
X19050Y15240
X16510Y15240
X13970Y15240
T3
X33020Y27940
X35560Y27940
X38100Y27940
X40640Y27940
X43180Y27940
X43180Y43180
X40640Y43180
X38100Y43180
X10160Y27940
X33020Y43180
X30480Y43180
X27940Y43180
X25400Y43180
X22860Y43180
X20320Y43180
X17780Y43180
X15240Y43180
X12700Y43180
X10160Y43180
X7620Y27940
X12700Y27940
X15240Y27940
X17780Y27940
X20320Y27940
X35560Y43180
X22860Y27940
X25400Y27940
X27940Y27940
X30480Y27940
X7620Y43180
M30