G04 EAGLE Gerber RS-274X export*
G75*
%MOMM*%
%FSLAX34Y34*%
%LPD*%
%INTop Copper*%
%IPPOS*%
%AMOC8*
5,1,8,0,0,1.08239X$1,22.5*%
G01*
%ADD10R,1.308000X1.308000*%
%ADD11C,1.308000*%
%ADD12C,1.524000*%

G36*
X514678Y5084D02*
X514678Y5084D01*
X514697Y5082D01*
X514799Y5104D01*
X514901Y5120D01*
X514918Y5130D01*
X514938Y5134D01*
X515027Y5187D01*
X515118Y5236D01*
X515132Y5250D01*
X515149Y5260D01*
X515216Y5339D01*
X515288Y5414D01*
X515296Y5432D01*
X515309Y5447D01*
X515348Y5543D01*
X515391Y5637D01*
X515393Y5657D01*
X515401Y5675D01*
X515419Y5842D01*
X515419Y511558D01*
X515416Y511578D01*
X515418Y511597D01*
X515396Y511699D01*
X515380Y511801D01*
X515370Y511818D01*
X515366Y511838D01*
X515313Y511927D01*
X515264Y512018D01*
X515250Y512032D01*
X515240Y512049D01*
X515161Y512116D01*
X515086Y512188D01*
X515068Y512196D01*
X515053Y512209D01*
X514957Y512248D01*
X514863Y512291D01*
X514843Y512293D01*
X514825Y512301D01*
X514658Y512319D01*
X5842Y512319D01*
X5822Y512316D01*
X5803Y512318D01*
X5701Y512296D01*
X5599Y512280D01*
X5582Y512270D01*
X5562Y512266D01*
X5473Y512213D01*
X5382Y512164D01*
X5368Y512150D01*
X5351Y512140D01*
X5284Y512061D01*
X5212Y511986D01*
X5204Y511968D01*
X5191Y511953D01*
X5152Y511857D01*
X5109Y511763D01*
X5107Y511743D01*
X5099Y511725D01*
X5081Y511558D01*
X5081Y5842D01*
X5084Y5822D01*
X5082Y5803D01*
X5104Y5701D01*
X5120Y5599D01*
X5130Y5582D01*
X5134Y5562D01*
X5187Y5473D01*
X5236Y5382D01*
X5250Y5368D01*
X5260Y5351D01*
X5339Y5284D01*
X5414Y5212D01*
X5432Y5204D01*
X5447Y5191D01*
X5543Y5152D01*
X5637Y5109D01*
X5657Y5107D01*
X5675Y5099D01*
X5842Y5081D01*
X514658Y5081D01*
X514678Y5084D01*
G37*
%LPC*%
G36*
X264679Y134619D02*
X264679Y134619D01*
X260944Y136166D01*
X258086Y139024D01*
X256539Y142759D01*
X256539Y162041D01*
X258086Y165776D01*
X260944Y168634D01*
X264679Y170181D01*
X268721Y170181D01*
X272456Y168634D01*
X275314Y165776D01*
X276861Y162041D01*
X276861Y142759D01*
X275314Y139024D01*
X272456Y136166D01*
X268721Y134619D01*
X264679Y134619D01*
G37*
%LPD*%
%LPC*%
G36*
X290079Y134619D02*
X290079Y134619D01*
X286344Y136166D01*
X283486Y139024D01*
X281939Y142759D01*
X281939Y162041D01*
X283486Y165776D01*
X286344Y168634D01*
X290079Y170181D01*
X294121Y170181D01*
X297856Y168634D01*
X300714Y165776D01*
X302261Y162041D01*
X302261Y142759D01*
X300714Y139024D01*
X297856Y136166D01*
X294121Y134619D01*
X290079Y134619D01*
G37*
%LPD*%
%LPC*%
G36*
X340879Y134619D02*
X340879Y134619D01*
X337144Y136166D01*
X334286Y139024D01*
X332739Y142759D01*
X332739Y162041D01*
X334286Y165776D01*
X337144Y168634D01*
X340879Y170181D01*
X344921Y170181D01*
X348656Y168634D01*
X351514Y165776D01*
X353061Y162041D01*
X353061Y142759D01*
X351514Y139024D01*
X348656Y136166D01*
X344921Y134619D01*
X340879Y134619D01*
G37*
%LPD*%
%LPC*%
G36*
X163079Y134619D02*
X163079Y134619D01*
X159344Y136166D01*
X156486Y139024D01*
X154939Y142759D01*
X154939Y162041D01*
X156486Y165776D01*
X159344Y168634D01*
X163079Y170181D01*
X167121Y170181D01*
X170856Y168634D01*
X173714Y165776D01*
X175261Y162041D01*
X175261Y142759D01*
X173714Y139024D01*
X170856Y136166D01*
X167121Y134619D01*
X163079Y134619D01*
G37*
%LPD*%
%LPC*%
G36*
X239279Y134619D02*
X239279Y134619D01*
X235544Y136166D01*
X232686Y139024D01*
X231139Y142759D01*
X231139Y162041D01*
X232686Y165776D01*
X235544Y168634D01*
X239279Y170181D01*
X243321Y170181D01*
X247056Y168634D01*
X249914Y165776D01*
X251461Y162041D01*
X251461Y142759D01*
X249914Y139024D01*
X247056Y136166D01*
X243321Y134619D01*
X239279Y134619D01*
G37*
%LPD*%
%LPC*%
G36*
X213879Y134619D02*
X213879Y134619D01*
X210144Y136166D01*
X207286Y139024D01*
X205739Y142759D01*
X205739Y162041D01*
X207286Y165776D01*
X210144Y168634D01*
X213879Y170181D01*
X217921Y170181D01*
X221656Y168634D01*
X224514Y165776D01*
X226061Y162041D01*
X226061Y142759D01*
X224514Y139024D01*
X221656Y136166D01*
X217921Y134619D01*
X213879Y134619D01*
G37*
%LPD*%
%LPC*%
G36*
X188479Y134619D02*
X188479Y134619D01*
X184744Y136166D01*
X181886Y139024D01*
X180339Y142759D01*
X180339Y162041D01*
X181886Y165776D01*
X184744Y168634D01*
X188479Y170181D01*
X192521Y170181D01*
X196256Y168634D01*
X199114Y165776D01*
X200661Y162041D01*
X200661Y142759D01*
X199114Y139024D01*
X196256Y136166D01*
X192521Y134619D01*
X188479Y134619D01*
G37*
%LPD*%
%LPC*%
G36*
X137679Y134619D02*
X137679Y134619D01*
X133944Y136166D01*
X131086Y139024D01*
X129539Y142759D01*
X129539Y162041D01*
X131086Y165776D01*
X133944Y168634D01*
X137679Y170181D01*
X141721Y170181D01*
X145456Y168634D01*
X148314Y165776D01*
X149861Y162041D01*
X149861Y142759D01*
X148314Y139024D01*
X145456Y136166D01*
X141721Y134619D01*
X137679Y134619D01*
G37*
%LPD*%
%LPC*%
G36*
X112279Y134619D02*
X112279Y134619D01*
X108544Y136166D01*
X105686Y139024D01*
X104139Y142759D01*
X104139Y162041D01*
X105686Y165776D01*
X108544Y168634D01*
X112279Y170181D01*
X116321Y170181D01*
X120056Y168634D01*
X122914Y165776D01*
X124461Y162041D01*
X124461Y142759D01*
X122914Y139024D01*
X120056Y136166D01*
X116321Y134619D01*
X112279Y134619D01*
G37*
%LPD*%
%LPC*%
G36*
X454421Y417829D02*
X454421Y417829D01*
X449286Y419956D01*
X445356Y423886D01*
X443229Y429021D01*
X443229Y434579D01*
X445356Y439714D01*
X449286Y443644D01*
X454421Y445771D01*
X459979Y445771D01*
X465114Y443644D01*
X469044Y439714D01*
X471171Y434579D01*
X471171Y429021D01*
X469044Y423886D01*
X465114Y419956D01*
X459979Y417829D01*
X454421Y417829D01*
G37*
%LPD*%
%LPC*%
G36*
X48021Y417829D02*
X48021Y417829D01*
X42886Y419956D01*
X38956Y423886D01*
X36829Y429021D01*
X36829Y434579D01*
X38956Y439714D01*
X42886Y443644D01*
X48021Y445771D01*
X53579Y445771D01*
X58714Y443644D01*
X62644Y439714D01*
X64771Y434579D01*
X64771Y429021D01*
X62644Y423886D01*
X58714Y419956D01*
X53579Y417829D01*
X48021Y417829D01*
G37*
%LPD*%
%LPC*%
G36*
X454421Y265429D02*
X454421Y265429D01*
X449286Y267556D01*
X445356Y271486D01*
X443229Y276621D01*
X443229Y282179D01*
X445356Y287314D01*
X449286Y291244D01*
X454421Y293371D01*
X459979Y293371D01*
X465114Y291244D01*
X469044Y287314D01*
X471171Y282179D01*
X471171Y276621D01*
X469044Y271486D01*
X465114Y267556D01*
X459979Y265429D01*
X454421Y265429D01*
G37*
%LPD*%
%LPC*%
G36*
X48021Y265429D02*
X48021Y265429D01*
X42886Y267556D01*
X38956Y271486D01*
X36829Y276621D01*
X36829Y282179D01*
X38956Y287314D01*
X42886Y291244D01*
X48021Y293371D01*
X53579Y293371D01*
X58714Y291244D01*
X62644Y287314D01*
X64771Y282179D01*
X64771Y276621D01*
X62644Y271486D01*
X58714Y267556D01*
X53579Y265429D01*
X48021Y265429D01*
G37*
%LPD*%
%LPC*%
G36*
X68608Y270319D02*
X68608Y270319D01*
X67119Y271808D01*
X67119Y286992D01*
X68608Y288481D01*
X83792Y288481D01*
X85281Y286992D01*
X85281Y271808D01*
X83792Y270319D01*
X68608Y270319D01*
G37*
%LPD*%
%LPC*%
G36*
X328394Y422719D02*
X328394Y422719D01*
X325056Y424102D01*
X322502Y426656D01*
X321119Y429994D01*
X321119Y433606D01*
X322502Y436944D01*
X325056Y439498D01*
X328394Y440881D01*
X332006Y440881D01*
X335344Y439498D01*
X337898Y436944D01*
X339281Y433606D01*
X339281Y429994D01*
X337898Y426656D01*
X335344Y424102D01*
X332006Y422719D01*
X328394Y422719D01*
G37*
%LPD*%
%LPC*%
G36*
X302994Y422719D02*
X302994Y422719D01*
X299656Y424102D01*
X297102Y426656D01*
X295719Y429994D01*
X295719Y433606D01*
X297102Y436944D01*
X299656Y439498D01*
X302994Y440881D01*
X306606Y440881D01*
X309944Y439498D01*
X312498Y436944D01*
X313881Y433606D01*
X313881Y429994D01*
X312498Y426656D01*
X309944Y424102D01*
X306606Y422719D01*
X302994Y422719D01*
G37*
%LPD*%
%LPC*%
G36*
X277594Y422719D02*
X277594Y422719D01*
X274256Y424102D01*
X271702Y426656D01*
X270319Y429994D01*
X270319Y433606D01*
X271702Y436944D01*
X274256Y439498D01*
X277594Y440881D01*
X281206Y440881D01*
X284544Y439498D01*
X287098Y436944D01*
X288481Y433606D01*
X288481Y429994D01*
X287098Y426656D01*
X284544Y424102D01*
X281206Y422719D01*
X277594Y422719D01*
G37*
%LPD*%
%LPC*%
G36*
X252194Y422719D02*
X252194Y422719D01*
X248856Y424102D01*
X246302Y426656D01*
X244919Y429994D01*
X244919Y433606D01*
X246302Y436944D01*
X248856Y439498D01*
X252194Y440881D01*
X255806Y440881D01*
X259144Y439498D01*
X261698Y436944D01*
X263081Y433606D01*
X263081Y429994D01*
X261698Y426656D01*
X259144Y424102D01*
X255806Y422719D01*
X252194Y422719D01*
G37*
%LPD*%
%LPC*%
G36*
X226794Y422719D02*
X226794Y422719D01*
X223456Y424102D01*
X220902Y426656D01*
X219519Y429994D01*
X219519Y433606D01*
X220902Y436944D01*
X223456Y439498D01*
X226794Y440881D01*
X230406Y440881D01*
X233744Y439498D01*
X236298Y436944D01*
X237681Y433606D01*
X237681Y429994D01*
X236298Y426656D01*
X233744Y424102D01*
X230406Y422719D01*
X226794Y422719D01*
G37*
%LPD*%
%LPC*%
G36*
X150594Y422719D02*
X150594Y422719D01*
X147256Y424102D01*
X144702Y426656D01*
X143319Y429994D01*
X143319Y433606D01*
X144702Y436944D01*
X147256Y439498D01*
X150594Y440881D01*
X154206Y440881D01*
X157544Y439498D01*
X160098Y436944D01*
X161481Y433606D01*
X161481Y429994D01*
X160098Y426656D01*
X157544Y424102D01*
X154206Y422719D01*
X150594Y422719D01*
G37*
%LPD*%
%LPC*%
G36*
X125194Y422719D02*
X125194Y422719D01*
X121856Y424102D01*
X119302Y426656D01*
X117919Y429994D01*
X117919Y433606D01*
X119302Y436944D01*
X121856Y439498D01*
X125194Y440881D01*
X128806Y440881D01*
X132144Y439498D01*
X134698Y436944D01*
X136081Y433606D01*
X136081Y429994D01*
X134698Y426656D01*
X132144Y424102D01*
X128806Y422719D01*
X125194Y422719D01*
G37*
%LPD*%
%LPC*%
G36*
X99794Y422719D02*
X99794Y422719D01*
X96456Y424102D01*
X93902Y426656D01*
X92519Y429994D01*
X92519Y433606D01*
X93902Y436944D01*
X96456Y439498D01*
X99794Y440881D01*
X103406Y440881D01*
X106744Y439498D01*
X109298Y436944D01*
X110681Y433606D01*
X110681Y429994D01*
X109298Y426656D01*
X106744Y424102D01*
X103406Y422719D01*
X99794Y422719D01*
G37*
%LPD*%
%LPC*%
G36*
X74394Y422719D02*
X74394Y422719D01*
X71056Y424102D01*
X68502Y426656D01*
X67119Y429994D01*
X67119Y433606D01*
X68502Y436944D01*
X71056Y439498D01*
X74394Y440881D01*
X78006Y440881D01*
X81344Y439498D01*
X83898Y436944D01*
X85281Y433606D01*
X85281Y429994D01*
X83898Y426656D01*
X81344Y424102D01*
X78006Y422719D01*
X74394Y422719D01*
G37*
%LPD*%
%LPC*%
G36*
X353794Y270319D02*
X353794Y270319D01*
X350456Y271702D01*
X347902Y274256D01*
X346519Y277594D01*
X346519Y281206D01*
X347902Y284544D01*
X350456Y287098D01*
X353794Y288481D01*
X357406Y288481D01*
X360744Y287098D01*
X363298Y284544D01*
X364681Y281206D01*
X364681Y277594D01*
X363298Y274256D01*
X360744Y271702D01*
X357406Y270319D01*
X353794Y270319D01*
G37*
%LPD*%
%LPC*%
G36*
X99794Y270319D02*
X99794Y270319D01*
X96456Y271702D01*
X93902Y274256D01*
X92519Y277594D01*
X92519Y281206D01*
X93902Y284544D01*
X96456Y287098D01*
X99794Y288481D01*
X103406Y288481D01*
X106744Y287098D01*
X109298Y284544D01*
X110681Y281206D01*
X110681Y277594D01*
X109298Y274256D01*
X106744Y271702D01*
X103406Y270319D01*
X99794Y270319D01*
G37*
%LPD*%
%LPC*%
G36*
X429994Y270319D02*
X429994Y270319D01*
X426656Y271702D01*
X424102Y274256D01*
X422719Y277594D01*
X422719Y281206D01*
X424102Y284544D01*
X426656Y287098D01*
X429994Y288481D01*
X433606Y288481D01*
X436944Y287098D01*
X439498Y284544D01*
X440881Y281206D01*
X440881Y277594D01*
X439498Y274256D01*
X436944Y271702D01*
X433606Y270319D01*
X429994Y270319D01*
G37*
%LPD*%
%LPC*%
G36*
X379194Y270319D02*
X379194Y270319D01*
X375856Y271702D01*
X373302Y274256D01*
X371919Y277594D01*
X371919Y281206D01*
X373302Y284544D01*
X375856Y287098D01*
X379194Y288481D01*
X382806Y288481D01*
X386144Y287098D01*
X388698Y284544D01*
X390081Y281206D01*
X390081Y277594D01*
X388698Y274256D01*
X386144Y271702D01*
X382806Y270319D01*
X379194Y270319D01*
G37*
%LPD*%
%LPC*%
G36*
X175994Y270319D02*
X175994Y270319D01*
X172656Y271702D01*
X170102Y274256D01*
X168719Y277594D01*
X168719Y281206D01*
X170102Y284544D01*
X172656Y287098D01*
X175994Y288481D01*
X179606Y288481D01*
X182944Y287098D01*
X185498Y284544D01*
X186881Y281206D01*
X186881Y277594D01*
X185498Y274256D01*
X182944Y271702D01*
X179606Y270319D01*
X175994Y270319D01*
G37*
%LPD*%
%LPC*%
G36*
X328394Y270319D02*
X328394Y270319D01*
X325056Y271702D01*
X322502Y274256D01*
X321119Y277594D01*
X321119Y281206D01*
X322502Y284544D01*
X325056Y287098D01*
X328394Y288481D01*
X332006Y288481D01*
X335344Y287098D01*
X337898Y284544D01*
X339281Y281206D01*
X339281Y277594D01*
X337898Y274256D01*
X335344Y271702D01*
X332006Y270319D01*
X328394Y270319D01*
G37*
%LPD*%
%LPC*%
G36*
X302994Y270319D02*
X302994Y270319D01*
X299656Y271702D01*
X297102Y274256D01*
X295719Y277594D01*
X295719Y281206D01*
X297102Y284544D01*
X299656Y287098D01*
X302994Y288481D01*
X306606Y288481D01*
X309944Y287098D01*
X312498Y284544D01*
X313881Y281206D01*
X313881Y277594D01*
X312498Y274256D01*
X309944Y271702D01*
X306606Y270319D01*
X302994Y270319D01*
G37*
%LPD*%
%LPC*%
G36*
X277594Y270319D02*
X277594Y270319D01*
X274256Y271702D01*
X271702Y274256D01*
X270319Y277594D01*
X270319Y281206D01*
X271702Y284544D01*
X274256Y287098D01*
X277594Y288481D01*
X281206Y288481D01*
X284544Y287098D01*
X287098Y284544D01*
X288481Y281206D01*
X288481Y277594D01*
X287098Y274256D01*
X284544Y271702D01*
X281206Y270319D01*
X277594Y270319D01*
G37*
%LPD*%
%LPC*%
G36*
X252194Y270319D02*
X252194Y270319D01*
X248856Y271702D01*
X246302Y274256D01*
X244919Y277594D01*
X244919Y281206D01*
X246302Y284544D01*
X248856Y287098D01*
X252194Y288481D01*
X255806Y288481D01*
X259144Y287098D01*
X261698Y284544D01*
X263081Y281206D01*
X263081Y277594D01*
X261698Y274256D01*
X259144Y271702D01*
X255806Y270319D01*
X252194Y270319D01*
G37*
%LPD*%
%LPC*%
G36*
X226794Y270319D02*
X226794Y270319D01*
X223456Y271702D01*
X220902Y274256D01*
X219519Y277594D01*
X219519Y281206D01*
X220902Y284544D01*
X223456Y287098D01*
X226794Y288481D01*
X230406Y288481D01*
X233744Y287098D01*
X236298Y284544D01*
X237681Y281206D01*
X237681Y277594D01*
X236298Y274256D01*
X233744Y271702D01*
X230406Y270319D01*
X226794Y270319D01*
G37*
%LPD*%
%LPC*%
G36*
X201394Y270319D02*
X201394Y270319D01*
X198056Y271702D01*
X195502Y274256D01*
X194119Y277594D01*
X194119Y281206D01*
X195502Y284544D01*
X198056Y287098D01*
X201394Y288481D01*
X205006Y288481D01*
X208344Y287098D01*
X210898Y284544D01*
X212281Y281206D01*
X212281Y277594D01*
X210898Y274256D01*
X208344Y271702D01*
X205006Y270319D01*
X201394Y270319D01*
G37*
%LPD*%
%LPC*%
G36*
X150594Y270319D02*
X150594Y270319D01*
X147256Y271702D01*
X144702Y274256D01*
X143319Y277594D01*
X143319Y281206D01*
X144702Y284544D01*
X147256Y287098D01*
X150594Y288481D01*
X154206Y288481D01*
X157544Y287098D01*
X160098Y284544D01*
X161481Y281206D01*
X161481Y277594D01*
X160098Y274256D01*
X157544Y271702D01*
X154206Y270319D01*
X150594Y270319D01*
G37*
%LPD*%
%LPC*%
G36*
X125194Y270319D02*
X125194Y270319D01*
X121856Y271702D01*
X119302Y274256D01*
X117919Y277594D01*
X117919Y281206D01*
X119302Y284544D01*
X121856Y287098D01*
X125194Y288481D01*
X128806Y288481D01*
X132144Y287098D01*
X134698Y284544D01*
X136081Y281206D01*
X136081Y277594D01*
X134698Y274256D01*
X132144Y271702D01*
X128806Y270319D01*
X125194Y270319D01*
G37*
%LPD*%
%LPC*%
G36*
X404594Y422719D02*
X404594Y422719D01*
X401256Y424102D01*
X398702Y426656D01*
X397319Y429994D01*
X397319Y433606D01*
X398702Y436944D01*
X401256Y439498D01*
X404594Y440881D01*
X408206Y440881D01*
X411544Y439498D01*
X414098Y436944D01*
X415481Y433606D01*
X415481Y429994D01*
X414098Y426656D01*
X411544Y424102D01*
X408206Y422719D01*
X404594Y422719D01*
G37*
%LPD*%
%LPC*%
G36*
X379194Y422719D02*
X379194Y422719D01*
X375856Y424102D01*
X373302Y426656D01*
X371919Y429994D01*
X371919Y433606D01*
X373302Y436944D01*
X375856Y439498D01*
X379194Y440881D01*
X382806Y440881D01*
X386144Y439498D01*
X388698Y436944D01*
X390081Y433606D01*
X390081Y429994D01*
X388698Y426656D01*
X386144Y424102D01*
X382806Y422719D01*
X379194Y422719D01*
G37*
%LPD*%
%LPC*%
G36*
X429994Y422719D02*
X429994Y422719D01*
X426656Y424102D01*
X424102Y426656D01*
X422719Y429994D01*
X422719Y433606D01*
X424102Y436944D01*
X426656Y439498D01*
X429994Y440881D01*
X433606Y440881D01*
X436944Y439498D01*
X439498Y436944D01*
X440881Y433606D01*
X440881Y429994D01*
X439498Y426656D01*
X436944Y424102D01*
X433606Y422719D01*
X429994Y422719D01*
G37*
%LPD*%
%LPC*%
G36*
X201394Y422719D02*
X201394Y422719D01*
X198056Y424102D01*
X195502Y426656D01*
X194119Y429994D01*
X194119Y433606D01*
X195502Y436944D01*
X198056Y439498D01*
X201394Y440881D01*
X205006Y440881D01*
X208344Y439498D01*
X210898Y436944D01*
X212281Y433606D01*
X212281Y429994D01*
X210898Y426656D01*
X208344Y424102D01*
X205006Y422719D01*
X201394Y422719D01*
G37*
%LPD*%
%LPC*%
G36*
X175994Y422719D02*
X175994Y422719D01*
X172656Y424102D01*
X170102Y426656D01*
X168719Y429994D01*
X168719Y433606D01*
X170102Y436944D01*
X172656Y439498D01*
X175994Y440881D01*
X179606Y440881D01*
X182944Y439498D01*
X185498Y436944D01*
X186881Y433606D01*
X186881Y429994D01*
X185498Y426656D01*
X182944Y424102D01*
X179606Y422719D01*
X175994Y422719D01*
G37*
%LPD*%
%LPC*%
G36*
X319023Y153923D02*
X319023Y153923D01*
X319023Y170066D01*
X319879Y169931D01*
X321400Y169436D01*
X322825Y168710D01*
X324119Y167770D01*
X325250Y166639D01*
X326190Y165345D01*
X326916Y163920D01*
X327411Y162399D01*
X327661Y160820D01*
X327661Y153923D01*
X319023Y153923D01*
G37*
%LPD*%
%LPC*%
G36*
X319023Y150877D02*
X319023Y150877D01*
X327661Y150877D01*
X327661Y143980D01*
X327411Y142401D01*
X326916Y140880D01*
X326190Y139455D01*
X325250Y138161D01*
X324119Y137030D01*
X322825Y136090D01*
X321400Y135364D01*
X319879Y134869D01*
X319023Y134734D01*
X319023Y150877D01*
G37*
%LPD*%
%LPC*%
G36*
X307339Y153923D02*
X307339Y153923D01*
X307339Y160820D01*
X307589Y162399D01*
X308084Y163920D01*
X308810Y165345D01*
X309750Y166639D01*
X310881Y167770D01*
X312175Y168710D01*
X313600Y169436D01*
X315121Y169931D01*
X315977Y170066D01*
X315977Y153923D01*
X307339Y153923D01*
G37*
%LPD*%
%LPC*%
G36*
X315121Y134869D02*
X315121Y134869D01*
X313600Y135364D01*
X312175Y136090D01*
X310881Y137030D01*
X309750Y138161D01*
X308810Y139455D01*
X308084Y140880D01*
X307589Y142401D01*
X307339Y143980D01*
X307339Y150877D01*
X315977Y150877D01*
X315977Y134734D01*
X315121Y134869D01*
G37*
%LPD*%
%LPC*%
G36*
X357123Y433323D02*
X357123Y433323D01*
X357123Y440756D01*
X358249Y440532D01*
X359901Y439847D01*
X361389Y438853D01*
X362653Y437589D01*
X363647Y436101D01*
X364332Y434449D01*
X364556Y433323D01*
X357123Y433323D01*
G37*
%LPD*%
%LPC*%
G36*
X407923Y280923D02*
X407923Y280923D01*
X407923Y288356D01*
X409049Y288132D01*
X410701Y287447D01*
X412189Y286453D01*
X413453Y285189D01*
X414447Y283701D01*
X415132Y282049D01*
X415356Y280923D01*
X407923Y280923D01*
G37*
%LPD*%
%LPC*%
G36*
X357123Y430277D02*
X357123Y430277D01*
X364556Y430277D01*
X364332Y429151D01*
X363647Y427499D01*
X362653Y426011D01*
X361389Y424747D01*
X359901Y423753D01*
X358249Y423068D01*
X357123Y422844D01*
X357123Y430277D01*
G37*
%LPD*%
%LPC*%
G36*
X346644Y433323D02*
X346644Y433323D01*
X346868Y434449D01*
X347553Y436101D01*
X348547Y437589D01*
X349811Y438853D01*
X351299Y439847D01*
X352951Y440532D01*
X354077Y440756D01*
X354077Y433323D01*
X346644Y433323D01*
G37*
%LPD*%
%LPC*%
G36*
X397444Y280923D02*
X397444Y280923D01*
X397668Y282049D01*
X398353Y283701D01*
X399347Y285189D01*
X400611Y286453D01*
X402099Y287447D01*
X403751Y288132D01*
X404877Y288356D01*
X404877Y280923D01*
X397444Y280923D01*
G37*
%LPD*%
%LPC*%
G36*
X407923Y277877D02*
X407923Y277877D01*
X415356Y277877D01*
X415132Y276751D01*
X414447Y275099D01*
X413453Y273611D01*
X412189Y272347D01*
X410701Y271353D01*
X409049Y270668D01*
X407923Y270444D01*
X407923Y277877D01*
G37*
%LPD*%
%LPC*%
G36*
X352951Y423068D02*
X352951Y423068D01*
X351299Y423753D01*
X349811Y424747D01*
X348547Y426011D01*
X347553Y427499D01*
X346868Y429151D01*
X346644Y430277D01*
X354077Y430277D01*
X354077Y422844D01*
X352951Y423068D01*
G37*
%LPD*%
%LPC*%
G36*
X403751Y270668D02*
X403751Y270668D01*
X402099Y271353D01*
X400611Y272347D01*
X399347Y273611D01*
X398353Y275099D01*
X397668Y276751D01*
X397444Y277877D01*
X404877Y277877D01*
X404877Y270444D01*
X403751Y270668D01*
G37*
%LPD*%
%LPC*%
G36*
X355599Y431799D02*
X355599Y431799D01*
X355599Y431801D01*
X355601Y431801D01*
X355601Y431799D01*
X355599Y431799D01*
G37*
%LPD*%
%LPC*%
G36*
X406399Y279399D02*
X406399Y279399D01*
X406399Y279401D01*
X406401Y279401D01*
X406401Y279399D01*
X406399Y279399D01*
G37*
%LPD*%
%LPC*%
G36*
X317499Y152399D02*
X317499Y152399D01*
X317499Y152401D01*
X317501Y152401D01*
X317501Y152399D01*
X317499Y152399D01*
G37*
%LPD*%
D10*
X76200Y279400D03*
D11*
X101600Y279400D03*
X127000Y279400D03*
X152400Y279400D03*
X177800Y279400D03*
X203200Y279400D03*
X228600Y279400D03*
X254000Y279400D03*
X279400Y279400D03*
X304800Y279400D03*
X330200Y279400D03*
X355600Y279400D03*
X381000Y279400D03*
X406400Y279400D03*
X431800Y279400D03*
X431800Y431800D03*
X406400Y431800D03*
X381000Y431800D03*
X355600Y431800D03*
X330200Y431800D03*
X304800Y431800D03*
X279400Y431800D03*
X254000Y431800D03*
X228600Y431800D03*
X203200Y431800D03*
X177800Y431800D03*
X152400Y431800D03*
X127000Y431800D03*
X101600Y431800D03*
X76200Y431800D03*
D12*
X342900Y160020D02*
X342900Y144780D01*
X317500Y144780D02*
X317500Y160020D01*
X292100Y160020D02*
X292100Y144780D01*
X266700Y144780D02*
X266700Y160020D01*
X241300Y160020D02*
X241300Y144780D01*
X215900Y144780D02*
X215900Y160020D01*
X190500Y160020D02*
X190500Y144780D01*
X165100Y144780D02*
X165100Y160020D01*
X139700Y160020D02*
X139700Y144780D01*
X114300Y144780D02*
X114300Y160020D01*
M02*
