G04 EAGLE Gerber RS-274X export*
G75*
%MOMM*%
%FSLAX34Y34*%
%LPD*%
%INBottom Copper*%
%IPPOS*%
%AMOC8*
5,1,8,0,0,1.08239X$1,22.5*%
G01*
%ADD10R,1.308000X1.308000*%
%ADD11C,1.308000*%
%ADD12C,1.524000*%
%ADD13C,0.304800*%


D10*
X76200Y279400D03*
D11*
X101600Y279400D03*
X127000Y279400D03*
X152400Y279400D03*
X177800Y279400D03*
X203200Y279400D03*
X228600Y279400D03*
X254000Y279400D03*
X279400Y279400D03*
X304800Y279400D03*
X330200Y279400D03*
X355600Y279400D03*
X381000Y279400D03*
X406400Y279400D03*
X431800Y279400D03*
X431800Y431800D03*
X406400Y431800D03*
X381000Y431800D03*
X355600Y431800D03*
X330200Y431800D03*
X304800Y431800D03*
X279400Y431800D03*
X254000Y431800D03*
X228600Y431800D03*
X203200Y431800D03*
X177800Y431800D03*
X152400Y431800D03*
X127000Y431800D03*
X101600Y431800D03*
X76200Y431800D03*
D12*
X342900Y160020D02*
X342900Y144780D01*
X317500Y144780D02*
X317500Y160020D01*
X292100Y160020D02*
X292100Y144780D01*
X266700Y144780D02*
X266700Y160020D01*
X241300Y160020D02*
X241300Y144780D01*
X215900Y144780D02*
X215900Y160020D01*
X190500Y160020D02*
X190500Y144780D01*
X165100Y144780D02*
X165100Y160020D01*
X139700Y160020D02*
X139700Y144780D01*
X114300Y144780D02*
X114300Y160020D01*
D13*
X354838Y164846D02*
X354838Y279400D01*
X354838Y164846D02*
X343662Y153670D01*
X354838Y279400D02*
X355600Y279400D01*
X343662Y153670D02*
X342900Y152400D01*
X279400Y164846D02*
X279400Y279400D01*
X279400Y164846D02*
X290576Y153670D01*
X292100Y152400D01*
X254254Y164846D02*
X254254Y279400D01*
X254254Y164846D02*
X266700Y152400D01*
X254254Y279400D02*
X254000Y279400D01*
M02*
